<svg xmlns="http://www.w3.org/2000/svg"
     viewBox="0 0 100 100"
     fill="none"
     stroke="#d97706"
     stroke-linecap="round"
     stroke-linejoin="round"
     stroke-width="2">

    <!-- Рога (адаптированы под первый) -->
    <path d="M32 36 C 26 22, 18 28, 22 42 M 68 36 C 74 22, 82 28, 78 42"></path>
    <path d="M38 34 C 36 22, 42 18, 46 30 M 62 34 C 64 22, 58 18, 54 30"></path>

    <!-- Голова (как во втором — без заливки) -->
    <circle cx="50" cy="60" r="25"></circle>

    <!-- Руки (оставил как во втором) -->
    <path d="M25 55 C 20 50, 20 60, 26 62 M 75 55 C 80 50, 80 60, 74 62"></path>

    <!-- Глаза (подогнаны под первый, стиль заливки как во втором) -->
    <ellipse cx="44" cy="56" fill="#d97706" rx="3" ry="5"></ellipse>
    <ellipse cx="56" cy="56" fill="#d97706" rx="3" ry="5"></ellipse>

    <!-- Морда/нос (форма как в первом, заливка как во втором) -->
    <ellipse cx="50" cy="64" rx="10" ry="7" fill="rgba(217,119,6,0.2)" stroke="none"></ellipse>

    <!-- Ноги (как во втором) -->
    <path d="M40 85 L 40 95 M 60 85 L 60 95"></path>
</svg>
